<svg width="55" height="55" fill="none" xmlns="http://www.w3.org/2000/svg"><circle cx="27.5" cy="27.5" r="27.5" fill="#FFC331"/><path fill-rule="evenodd" clip-rule="evenodd" d="M20.185 24.504l7.315-7.315 7.315 7.315 4.253-4.253L27.5 8.684 15.933 20.252l4.252 4.252zm-7.253-1.242l-4.248 4.247 4.248 4.247 4.247-4.247-4.247-4.247zM27.5 37.825l-7.315-7.315-4.252 4.253L27.5 46.33l11.568-11.567-4.253-4.253-7.315 7.315zm14.57-14.563l-4.248 4.247 4.248 4.248 4.247-4.248-4.247-4.247zm-14.568-.067l4.312 4.312-4.312 4.312-4.311-4.312.743-.773.386-.357 3.182-3.181z" fill="#fff"/></svg>