<svg width="16" height="16" viewBox="0 0 16 16" fill="none" xmlns="http://www.w3.org/2000/svg">
<path d="M7.99968 14.6654C6.68114 14.6654 5.3922 14.2744 4.29588 13.5418C3.19955 12.8093 2.34506 11.7681 1.84048 10.5499C1.3359 9.33175 1.20387 7.99131 1.46111 6.6981C1.71834 5.40489 2.35328 4.21701 3.28563 3.28466C4.21798 2.35231 5.40587 1.71737 6.69908 1.46013C7.99228 1.2029 9.33273 1.33492 10.5509 1.8395C11.7691 2.34409 12.8103 3.19857 13.5428 4.2949C14.2754 5.39123 14.6663 6.68016 14.6663 7.9987C14.6642 9.76616 13.9612 11.4606 12.7114 12.7104C11.4616 13.9602 9.76714 14.6632 7.99968 14.6654Z" fill="#D0BAF5"/>
<path d="M6.66634 11.2608C6.31292 11.2594 5.9744 11.1183 5.72462 10.8683C5.47483 10.6182 5.33406 10.2796 5.33301 9.92615V6.07549C5.33301 5.84144 5.39463 5.61152 5.51165 5.40883C5.62868 5.20614 5.797 5.03783 5.99969 4.92081C6.20238 4.80379 6.4323 4.74219 6.66635 4.74219C6.9004 4.74219 7.13032 4.8038 7.33301 4.92082L10.6663 6.84615C10.869 6.96318 11.0373 7.1315 11.1543 7.33418C11.2713 7.53687 11.3329 7.76678 11.3329 8.00082C11.3329 8.23486 11.2713 8.46477 11.1543 8.66746C11.0373 8.87014 10.869 9.03846 10.6663 9.15549L7.33301 11.0808C7.1305 11.1984 6.90053 11.2605 6.66634 11.2608Z" fill="#7B3FE4"/>
</svg>
